<svg viewBox="0 0 1920 120" class="wave" fill="none" xmlns="http://www.w3.org/2000/svg">
    <defs>
        <clipPath id="waveDown" clipPathUnits="objectBoundingBox" transform="scale(0.000520833 0.008333333)">
            <path
                fill-rule="evenodd"
                clip-rule="evenodd"
                d="M0 51.3323L40 59.8877C80 68.4431 160 85.5539 240 82.7021C320 79.8503 400 57.0359 480 45.6287C560 34.2216 640 34.2216 720 37.0733C800 39.9251 880 45.6287 960 51.3323C1040 57.0359 1120 62.7395 1200 62.7395C1280 62.7395 1360 57.0359 1440 68.4431C1520 79.8503 1600 108.368 1680 116.924C1760 125.479 1840 114.072 1880 108.368L1920 102.665V0H1880C1840 0 1760 0 1680 0C1600 0 1520 0 1440 0C1360 0 1280 0 1200 0C1120 0 1040 0 960 0C880 0 800 0 720 0C640 0 560 0 480 0C400 0 320 0 240 0C160 0 80 0 40 0H0V51.3323Z"
                fill="black"
            />
        </clipPath>
    </defs>
</svg>